<svg xmlns="http://www.w3.org/2000/svg" width="500" height="500" viewBox="0 0 5000 5000">
  <g id="l21FBhbulicIXZ4iuHw8e0" fill="rgb(5,28,39)" style="transform: none;">
    <g style="transform: none;">
      <path id="ph5Cu21hX" d="M2778 3435 c-2 -2 -46 -5 -98 -6 -149 -3 -244 -17 -304 -43 l-55 -24 -63 19 c-35 11 -108 24 -163 30 -258 28 -497 -39 -674 -189 -66 -56 -85 -95 -66 -133 15 -27 58 -39 146 -39 40 0 58 -13 36 -27 -26 -16 -105 -140 -139 -218 -20 -44 -48 -132 -62 -195 -45 -191 -74 -234 -256 -375 -47 -37 -90 -70 -95 -73 -16 -11 -109 -132 -133 -174 -83 -146 -83 -406 1 -609 l14 -34 21 43 c12 23 31 59 42 81 25 50 112 129 181 163 30 15 104 48 164 73 115 48 182 99 206 157 6 15 13 28 15 28 2 0 20 -17 39 -39 42 -46 46 -47 265 -65 191 -16 260 -38 260 -81 0 -57 34 -16 54 64 21 86 -28 246 -112 361 -68 93 -197 194 -297 232 -22 9 -47 27 -55 42 -14 24 -13 29 5 63 31 57 66 77 134 78 50 0 65 -5 107 -34 51 -35 128 -122 178 -201 28 -43 116 -221 116 -234 0 -3 22 -66 50 -140 75 -203 141 -304 245 -370 49 -32 171 -80 230 -91 63 -11 186 -24 286 -30 57 -3 126 -8 152 -11 85 -9 460 -5 516 6 177 33 279 151 311 359 9 60 11 138 7 270 -10 278 -32 459 -84 676 l-25 109 33 28 c80 67 202 108 325 108 91 0 111 11 100 55 -9 34 -75 80 -184 129 -74 32 -104 40 -199 49 -73 6 -141 7 -192 1 -86 -10 -113 -5 -139 26 -63 74 -292 156 -477 170 -152 11 -362 20 -367 15z m157 -92 c173 -63 325 -247 386 -469 24 -88 22 -168 -6 -261 -15 -51 -16 -52 -43 -41 -89 36 -90 37 -97 107 -16 160 -102 370 -198 479 -87 99 -231 182 -317 182 l-40 0 0 -47 c1 -47 2 -48 48 -71 26 -12 52 -22 57 -22 17 0 140 -112 184 -167 22 -29 54 -80 70 -115 36 -75 81 -223 81 -262 l0 -29 -61 7 c-34 3 -76 6 -94 6 -31 0 -32 1 -39 53 -18 145 -48 237 -114 352 -40 68 -132 183 -166 205 -12 8 -40 29 -61 47 -44 37 -45 36 75 52 47 6 99 13 115 15 58 8 170 -3 220 -21z m360 -75 c179 -122 294 -339 298 -562 l2 -81 -51 -6 c-28 -4 -60 -11 -72 -18 -11 -6 -22 -11 -24 -11 -2 0 -4 71 -4 158 0 199 -14 252 -103 407 -19 33 -51 79 -73 102 -58 64 -53 66 27 11z m-1242 -141 c202 -65 367 -219 481 -449 21 -43 39 -92 40 -110 1 -30 -2 -33 -31 -36 -36 -4 -40 -16 -27 -81 6 -28 10 -31 46 -31 34 0 39 -3 33 -17 -4 -10 -11 -49 -16 -88 -14 -113 -19 -126 -65 -171 -42 -41 -44 -45 -44 -102 0 -43 5 -63 16 -73 35 -29 382 -51 463 -29 203 54 268 59 376 30 221 -62 221 -62 377 -58 170 3 156 14 134 -105 -26 -136 -70 -188 -186 -223 -57 -16 -92 -19 -275 -17 -219 3 -544 26 -630 44 -112 25 -230 106 -290 198 -13 20 -40 79 -59 131 -85 224 -192 454 -240 513 -65 83 -162 170 -216 196 -44 21 -74 26 -148 29 -85 4 -98 2 -145 -23 -29 -14 -65 -41 -79 -59 -55 -69 -73 -190 -43 -289 16 -54 72 -157 85 -157 4 0 16 -13 27 -29 24 -39 147 -140 205 -170 25 -13 61 -39 80 -58 l33 -34 -50 5 c-27 3 -86 8 -130 11 -120 9 -166 33 -231 121 -30 40 -54 79 -54 87 0 24 -27 38 -67 35 -36 -3 -38 -5 -41 -43 -2 -21 2 -58 9 -82 23 -83 -34 -156 -148 -193 -37 -11 -87 -30 -110 -41 -24 -10 -46 -19 -49 -19 -4 0 -29 -14 -56 -30 -26 -17 -51 -30 -53 -30 -3 0 1 12 9 28 27 52 201 217 264 251 13 7 43 39 67 73 34 45 45 69 45 97 1 75 50 409 73 491 35 125 79 212 162 320 l42 55 57 -3 c31 -2 75 -10 98 -18 22 -8 62 -14 89 -14 49 0 49 0 49 33 0 18 -6 40 -12 49 -17 21 -210 77 -270 78 -46 0 -32 18 20 25 26 4 52 8 57 11 6 2 64 2 130 0 94 -3 137 -9 198 -29z m1937 -66 c36 -6 41 -9 25 -16 -11 -4 -46 -18 -77 -31 l-57 -22 -15 33 c-9 18 -16 36 -16 39 0 8 85 6 140 -3z m-255 -236 c27 -77 54 -178 55 -202 0 -6 -8 -10 -17 -8 -80 16 -73 7 -73 98 0 45 -7 117 -15 160 -8 43 -15 84 -15 90 1 21 36 -55 65 -138z m-563 -340 c56 -19 112 -35 124 -35 l21 0 -23 -47 c-13 -27 -31 -84 -39 -128 -9 -44 -20 -84 -24 -88 -15 -15 -40 23 -46 71 -18 141 -46 196 -110 220 -23 9 -98 17 -180 21 -109 5 -131 8 -100 15 22 4 45 9 50 12 6 2 58 2 117 -1 88 -4 126 -12 210 -40z m588 12 c42 -17 56 -28 58 -45 3 -22 2 -23 -20 -9 -22 15 -153 35 -253 40 l-50 2 50 16 c72 24 149 23 215 -4z m-773 -133 c13 -2 29 -17 37 -33 19 -35 37 -192 24 -208 -18 -23 -84 -47 -147 -54 -78 -8 -146 9 -181 46 -23 25 -23 25 -11 124 9 67 18 105 30 115 24 22 163 28 248 10z m700 -20 c26 -7 31 -18 43 -107 15 -100 6 -133 -41 -163 -74 -46 -246 -23 -298 40 -17 21 -10 98 16 176 15 47 23 56 48 62 33 8 198 2 232 -8z"></path>
    </g>
  </g>
  <g id="l5aQJKQASYAHtOdI1WAuQSP" fill="rgb(57,103,116)" style="transform: none;">
    <g style="transform: none;">
      <path id="pr7aaxUo3" d="M1594 3009 c-141 -163 -203 -328 -245 -659 -31 -242 -30 -240 -3 -240 19 0 27 13 52 77 17 43 35 98 42 123 17 62 97 255 124 299 13 20 26 46 30 57 3 12 15 29 26 39 11 10 20 23 20 29 0 15 188 200 218 215 12 7 22 17 22 25 0 18 -97 46 -187 52 -73 6 -79 5 -99 -17z"></path>
    </g>
  </g>
  <g id="l15p31snOmpDbI7MsYq2kmc" fill="rgb(85,246,255)" style="transform: none;">
    <g style="transform: none;">
      <path id="pVbKSWQ3k" d="M2774 2403 c-32 -2 -57 -10 -67 -21 -9 -10 -21 -65 -31 -137 -16 -115 -16 -121 2 -145 36 -49 86 -65 198 -63 80 2 112 6 147 23 71 33 71 34 58 161 -12 116 -29 164 -58 172 -28 8 -192 14 -249 10z"></path>
      <path id="p1GrC3eNCL" d="M3425 2382 c-25 -6 -33 -15 -48 -60 -9 -30 -22 -87 -28 -128 -14 -91 -3 -114 74 -150 44 -20 67 -24 155 -24 92 0 106 3 142 25 33 21 40 31 45 70 8 48 0 157 -16 216 -6 25 -17 39 -32 44 -32 9 -257 15 -292 7z"></path>
    </g>
  </g>
  <g id="l2BoaQe86A3bmMXcFgIQDai" fill="rgb(228,227,227)" style="transform: none;">
    <g style="transform: none;">
      <path id="pcmyX4CLj" d="M2680 3394 c-96 -11 -190 -27 -238 -41 l-54 -15 59 -39 c100 -67 129 -92 185 -159 97 -115 169 -262 190 -383 17 -101 18 -98 -47 -139 -70 -44 -137 -77 -147 -72 -4 3 -14 28 -22 57 -9 30 -30 82 -48 118 -114 222 -275 370 -475 437 -73 25 -90 26 -258 26 -164 0 -187 -2 -254 -25 -41 -13 -76 -29 -78 -36 -3 -7 23 -15 69 -22 166 -26 316 -69 329 -93 8 -15 6 -18 -16 -18 -15 0 -36 -5 -48 -11 -29 -15 -217 -201 -217 -215 0 -6 -9 -19 -20 -29 -11 -10 -23 -27 -26 -39 -4 -11 -17 -37 -30 -57 -31 -50 -89 -193 -135 -332 -63 -193 -110 -265 -238 -362 -66 -49 -130 -110 -176 -165 -35 -42 -56 -96 -80 -204 l-12 -60 20 30 c69 99 179 167 360 224 81 26 127 66 152 133 17 46 17 50 0 108 -14 44 -15 63 -7 71 12 12 42 -5 42 -25 0 -5 -10 -2 -22 9 -13 10 -7 1 13 -21 20 -22 53 -64 74 -94 56 -78 104 -98 277 -111 74 -5 155 -17 178 -25 24 -8 45 -14 47 -12 7 8 -47 93 -79 124 -18 17 -55 43 -83 58 -62 34 -174 128 -198 166 -11 16 -23 29 -27 29 -13 0 -69 103 -85 157 -19 62 -19 91 1 149 22 66 59 108 121 140 107 54 237 18 353 -98 36 -36 79 -83 96 -105 48 -59 155 -289 240 -513 19 -52 46 -111 59 -131 60 -92 178 -173 290 -198 92 -20 426 -42 665 -44 207 -2 243 0 300 17 77 23 124 57 151 109 25 47 49 169 49 244 0 49 -2 54 -17 48 -10 -4 -76 -10 -148 -12 -137 -5 -135 -6 -360 57 -119 33 -231 25 -436 -30 -74 -20 -369 1 -403 29 -30 25 -20 69 28 115 46 45 51 58 65 172 15 125 34 148 144 175 60 15 237 6 292 -13 64 -24 92 -79 110 -220 8 -60 27 -80 73 -76 35 3 36 4 49 63 44 198 55 212 181 227 71 9 115 8 193 -2 155 -19 167 -36 188 -268 7 -83 23 -95 32 -25 6 42 -15 318 -26 350 -2 6 -29 20 -60 32 -82 31 -191 29 -287 -5 -40 -14 -99 -30 -131 -36 -53 -9 -66 -7 -165 26 -127 42 -278 58 -383 40 -60 -10 -211 -74 -224 -95 -12 -19 -43 -9 -47 15 -3 17 -1 23 8 19 6 -2 29 4 51 15 131 67 164 81 217 92 55 11 114 9 234 -7 l43 -5 -6 63 c-15 140 -82 318 -156 412 -44 55 -167 167 -184 167 -26 -1 -104 46 -105 63 0 22 8 21 69 -3 78 -30 171 -97 228 -162 96 -109 182 -319 198 -479 6 -61 8 -66 38 -81 69 -33 137 -61 141 -57 2 2 13 42 25 88 29 115 28 216 -3 322 -25 84 -35 107 -94 209 -52 91 -188 207 -287 244 -49 18 -205 29 -285 20z"></path>
      <path id="pXS1R9fDD" d="M3062 3376 c142 -74 285 -264 335 -444 21 -75 21 -267 1 -342 -9 -30 -15 -56 -13 -58 1 -1 35 10 76 25 41 15 94 29 119 32 l45 6 -1 110 c-2 185 -47 317 -156 460 -50 64 -114 117 -228 187 -30 18 -117 38 -168 38 l-37 0 27 -14z"></path>
      <path id="pK33PHJ0H" d="M3426 3278 c10 -13 35 -39 54 -58 51 -52 67 -76 111 -166 49 -100 82 -260 77 -376 l-3 -78 35 -6 c19 -3 57 -14 84 -25 27 -10 51 -18 53 -16 6 7 -39 203 -64 277 -52 156 -124 287 -195 358 -35 35 -147 112 -162 112 -5 0 -1 -10 10 -22z"></path>
      <path id="p6tS3A4yN" d="M3808 3102 c-33 -4 -34 -6 -9 -41 10 -14 29 -50 42 -78 l22 -52 41 24 c61 35 188 75 241 75 121 0 -53 57 -206 68 -57 4 -116 6 -131 4z"></path>
    </g>
  </g>
</svg>